<svg xmlns="http://www.w3.org/2000/svg" xmlns:xlink="http://www.w3.org/1999/xlink" width="500" zoomAndPan="magnify" viewBox="0 0 375 374.999991" height="500" preserveAspectRatio="xMidYMid meet" version="1.2"><defs><clipPath id="175803b72d"><path d="M 37.5 43.464844 L 336.75 43.464844 L 336.75 331.464844 L 37.5 331.464844 Z M 37.5 43.464844 "/></clipPath></defs><g id="5fee6a029f"><g clip-rule="nonzero" clip-path="url(#175803b72d)"><path style=" stroke:none;fill-rule:nonzero;fill:#8a42a0;fill-opacity:1;" d="M 336.6875 311.019531 L 336.6875 63.914062 C 325.382812 63.914062 316.203125 54.753906 316.203125 43.453125 L 58.035156 43.453125 C 58.035156 54.753906 48.867188 63.914062 37.554688 63.914062 L 37.554688 311.019531 C 48.867188 311.019531 58.035156 320.175781 58.035156 331.476562 L 316.203125 331.476562 C 316.203125 320.175781 325.382812 311.019531 336.6875 311.019531 "/></g><path style=" stroke:none;fill-rule:nonzero;fill:#ffffff;fill-opacity:1;" d="M 320.054688 297.277344 L 320.054688 77.652344 C 310.003906 77.652344 301.851562 69.511719 301.851562 59.472656 L 72.398438 59.472656 C 72.398438 69.511719 64.246094 77.652344 54.195312 77.652344 L 54.195312 297.277344 C 64.246094 297.277344 72.398438 305.40625 72.398438 315.457031 L 301.851562 315.457031 C 301.851562 305.40625 310.003906 297.277344 320.054688 297.277344 "/><path style=" stroke:none;fill-rule:nonzero;fill:#abe3f0;fill-opacity:1;" d="M 200.898438 115.359375 L 86 115.359375 L 86 109.246094 L 200.898438 109.246094 L 200.898438 115.359375 "/><path style=" stroke:none;fill-rule:nonzero;fill:#abe3f0;fill-opacity:1;" d="M 200.898438 176.859375 L 86 176.859375 L 86 170.746094 L 200.898438 170.746094 L 200.898438 176.859375 "/><path style=" stroke:none;fill-rule:nonzero;fill:#abe3f0;fill-opacity:1;" d="M 200.898438 199.058594 L 86 199.058594 L 86 192.957031 L 200.898438 192.957031 L 200.898438 199.058594 "/><path style=" stroke:none;fill-rule:nonzero;fill:#abe3f0;fill-opacity:1;" d="M 200.898438 221.269531 L 86 221.269531 L 86 215.160156 L 200.898438 215.160156 L 200.898438 221.269531 "/><path style=" stroke:none;fill-rule:nonzero;fill:#abe3f0;fill-opacity:1;" d="M 200.898438 243.484375 L 86 243.484375 L 86 237.371094 L 200.898438 237.371094 L 200.898438 243.484375 "/><path style=" stroke:none;fill-rule:nonzero;fill:#abe3f0;fill-opacity:1;" d="M 200.898438 265.695312 L 86 265.695312 L 86 259.582031 L 200.898438 259.582031 L 200.898438 265.695312 "/><path style=" stroke:none;fill-rule:nonzero;fill:#abe3f0;fill-opacity:1;" d="M 288.25 179.808594 L 273.925781 169.917969 L 266.683594 185.738281 L 251.84375 131.933594 L 273.421875 126.003906 L 288.25 179.808594 "/><path style=" stroke:none;fill-rule:nonzero;fill:#abe3f0;fill-opacity:1;" d="M 222.570312 179.808594 L 236.910156 169.917969 L 244.152344 185.738281 L 258.976562 131.933594 L 237.410156 126.003906 L 222.570312 179.808594 "/><path style=" stroke:none;fill-rule:nonzero;fill:#2749a4;fill-opacity:1;" d="M 285.347656 111.761719 C 285.347656 128.269531 271.945312 141.65625 255.417969 141.65625 C 238.875 141.65625 225.472656 128.269531 225.472656 111.761719 C 225.472656 95.242188 238.875 81.855469 255.417969 81.855469 C 271.945312 81.855469 285.347656 95.242188 285.347656 111.761719 "/><path style=" stroke:none;fill-rule:nonzero;fill:#abe3f0;fill-opacity:1;" d="M 276.191406 111.761719 C 276.191406 123.226562 266.894531 132.511719 255.417969 132.511719 C 243.941406 132.511719 234.640625 123.226562 234.640625 111.761719 C 234.640625 100.300781 243.941406 91.011719 255.417969 91.011719 C 266.894531 91.011719 276.191406 100.300781 276.191406 111.761719 "/><path style=" stroke:none;fill-rule:nonzero;fill:#2749a4;fill-opacity:1;" d="M 281.257812 246.410156 L 234.640625 220.296875 L 241.804688 273.890625 L 250.484375 267.84375 L 268.09375 293.074219 L 290.203125 277.671875 L 272.59375 252.457031 L 281.257812 246.410156 "/></g></svg>